# xmcd CD database file
#
# Track frame offsets:
#	150
#	46116
#	78051
#	107379
#	132915
#	164997
#	188272
#	236535
#
# Disc length: 3455 seconds
#
# Revision: 0
# Processed by: cddbd v1.5.1PL0 Copyright (c) Steve Scherf et al.
# Submitted via: CDex 1.51
#
DISCID=550d7d08
DTITLE=Joe Haider Trio - A Sunday In Switzerland
DYEAR=2004
DGENRE=Jazz
TTITLE0=A Sunday In Switzerland
TTITLE1=On Green Dolphin Street
TTITLE2=Dark Circle Blues
TTITLE3=Rhythm 'dim
TTITLE4=Karen's Birthday Waltz
TTITLE5=Groovy Till
TTITLE6=For Line
TTITLE7=Some Other Blues
EXTD=YEAR: 2004
EXTT0=
EXTT1=
EXTT2=
EXTT3=
EXTT4=
EXTT5=
EXTT6=
EXTT7=
PLAYORDER=
